<svg width="68" height="68" viewBox="0 0 68 68" fill="none" xmlns="http://www.w3.org/2000/svg">
<path d="M62.6875 0.25H5.3125C2.5 0.25 0.25 2.5 0.25 5.03125V62.6875C0.25 65.2188 2.5 67.4687 5.3125 67.4687H62.6875C65.5 67.4687 67.75 65.2188 67.75 62.6875V5.03125C67.75 2.5 65.5 0.25 62.6875 0.25ZM20.2188 57.625H10.375V25.5625H20.2188V57.625ZM15.4375 21.0625C12.3437 21.0625 9.53125 18.5312 9.53125 15.1562C9.53125 11.7812 12.0625 9.25 15.4375 9.25C18.5312 9.25 21.3438 11.7812 21.3438 15.1562C21.3438 18.5312 18.5312 21.0625 15.4375 21.0625ZM57.9062 57.3437H48.0625V41.5938C48.0625 37.9375 48.0625 32.875 42.7188 32.875C37.375 32.875 36.8125 37.0937 36.8125 41.0312V57.0625H26.9688V25.5625H36.25V29.7812H36.5312C37.9375 27.25 41.3125 24.4375 46.0937 24.4375C56.2187 24.4375 58.1875 31.1875 58.1875 39.9062V57.3437H57.9062Z" fill="white"/>
</svg>
