<svg width="53" height="53" viewBox="0 0 53 53" fill="none" xmlns="http://www.w3.org/2000/svg">
<line x1="52.5" y1="22.1641" x2="52.5" y2="53" stroke="white"/>
<line x1="19.9799" y1="52.499" x2="52" y2="52.499" stroke="white"/>
<line x1="0.5" y1="22.1299" x2="0.499999" y2="-0.000108698" stroke="white"/>
<line x1="23.9799" y1="0.500488" x2="1.00001" y2="0.500486" stroke="white"/>
<rect x="4.5" y="4.5" width="44" height="44" stroke="white"/>
<path d="M28.0607 9.93934C27.4749 9.35355 26.5251 9.35355 25.9393 9.93934L16.3934 19.4853C15.8076 20.0711 15.8076 21.0208 16.3934 21.6066C16.9792 22.1924 17.9289 22.1924 18.5147 21.6066L27 13.1213L35.4853 21.6066C36.0711 22.1924 37.0208 22.1924 37.6066 21.6066C38.1924 21.0208 38.1924 20.0711 37.6066 19.4853L28.0607 9.93934ZM28.5 43L28.5 11H25.5L25.5 43H28.5Z" fill="white"/>
</svg>
