<svg width="55" height="55" viewBox="0 0 55 55" fill="none" xmlns="http://www.w3.org/2000/svg">
<path d="M51.1667 24.5417C50.3821 24.5417 49.6296 24.8533 49.0748 25.4081C48.52 25.9629 48.2083 26.7154 48.2083 27.5V45.25C48.2083 46.0346 47.8967 46.7871 47.3419 47.3419C46.7871 47.8967 46.0346 48.2083 45.25 48.2083H9.75C8.9654 48.2083 8.21294 47.8967 7.65814 47.3419C7.10335 46.7871 6.79167 46.0346 6.79167 45.25V9.75C6.79167 8.9654 7.10335 8.21294 7.65814 7.65814C8.21294 7.10335 8.9654 6.79167 9.75 6.79167H27.5C28.2846 6.79167 29.0371 6.47999 29.5919 5.92519C30.1467 5.3704 30.4583 4.61793 30.4583 3.83333C30.4583 3.04873 30.1467 2.29627 29.5919 1.74148C29.0371 1.18668 28.2846 0.875 27.5 0.875H9.75C7.3962 0.875 5.13881 1.81004 3.47443 3.47443C1.81004 5.13881 0.875 7.3962 0.875 9.75V45.25C0.875 47.6038 1.81004 49.8612 3.47443 51.5256C5.13881 53.19 7.3962 54.125 9.75 54.125H45.25C47.6038 54.125 49.8612 53.19 51.5256 51.5256C53.19 49.8612 54.125 47.6038 54.125 45.25V27.5C54.125 26.7154 53.8133 25.9629 53.2585 25.4081C52.7037 24.8533 51.9513 24.5417 51.1667 24.5417Z" fill="white"/>
<path d="M39.3333 6.79167H44.0075L25.3996 25.37C25.1223 25.645 24.9022 25.9722 24.752 26.3327C24.6018 26.6932 24.5245 27.0799 24.5245 27.4704C24.5245 27.861 24.6018 28.2476 24.752 28.6081C24.9022 28.9686 25.1223 29.2958 25.3996 29.5708C25.6746 29.8481 26.0018 30.0682 26.3623 30.2184C26.7228 30.3686 27.1095 30.4459 27.5 30.4459C27.8905 30.4459 28.2772 30.3686 28.6377 30.2184C28.9982 30.0682 29.3254 29.8481 29.6004 29.5708L48.2083 10.9925V15.6667C48.2083 16.4513 48.52 17.2037 49.0748 17.7585C49.6296 18.3133 50.3821 18.625 51.1667 18.625C51.9513 18.625 52.7037 18.3133 53.2585 17.7585C53.8133 17.2037 54.125 16.4513 54.125 15.6667V3.83333C54.125 3.04874 53.8133 2.29627 53.2585 1.74148C52.7037 1.18668 51.9513 0.875 51.1667 0.875H39.3333C38.5487 0.875 37.7963 1.18668 37.2415 1.74148C36.6867 2.29627 36.375 3.04874 36.375 3.83333C36.375 4.61793 36.6867 5.3704 37.2415 5.92519C37.7963 6.47999 38.5487 6.79167 39.3333 6.79167Z" fill="white"/>
</svg>
