<svg width="71" height="71" viewBox="0 0 71 71" fill="none" xmlns="http://www.w3.org/2000/svg">
<path fill-rule="evenodd" clip-rule="evenodd" d="M35.5 0C15.8862 0 0 15.8862 0 35.5C0 51.2087 10.1619 64.4769 24.2731 69.1806C26.0481 69.4912 26.7137 68.4262 26.7137 67.4944C26.7137 66.6513 26.6694 63.8556 26.6694 60.8825C17.75 62.5244 15.4425 58.7081 14.7325 56.7113C14.3331 55.6906 12.6025 52.54 11.0938 51.6969C9.85125 51.0312 8.07625 49.3894 11.0494 49.345C13.845 49.3006 15.8419 51.9187 16.5075 52.9837C19.7025 58.3531 24.8056 56.8444 26.8469 55.9125C27.1575 53.605 28.0894 52.0519 29.11 51.1644C21.2113 50.2769 12.9575 47.215 12.9575 33.6362C12.9575 29.7756 14.3331 26.5806 16.5963 24.0956C16.2412 23.2081 14.9987 19.5694 16.9513 14.6881C16.9513 14.6881 19.9244 13.7563 26.7137 18.3269C29.5537 17.5281 32.5712 17.1287 35.5887 17.1287C38.6062 17.1287 41.6237 17.5281 44.4637 18.3269C51.2531 13.7119 54.2262 14.6881 54.2262 14.6881C56.1787 19.5694 54.9363 23.2081 54.5812 24.0956C56.8444 26.5806 58.22 29.7312 58.22 33.6362C58.22 47.2594 49.9219 50.2769 42.0231 51.1644C43.31 52.2738 44.4194 54.4037 44.4194 57.7319C44.4194 62.48 44.375 66.2962 44.375 67.4944C44.375 68.4262 45.0406 69.5356 46.8156 69.1806C53.8629 66.8013 59.9867 62.272 64.325 56.2301C68.6634 50.1883 70.9979 42.9381 71 35.5C71 15.8862 55.1138 0 35.5 0Z" fill="white"/>
</svg>
