<svg width="105" height="85" viewBox="0 0 105 85" fill="none" xmlns="http://www.w3.org/2000/svg">
<path d="M14.871 23.052C14.611 23.052 14.39 23.0347 14.208 23V21.7C14.3467 21.7347 14.5027 21.752 14.676 21.752C14.962 21.752 15.1743 21.6827 15.313 21.544C15.4517 21.3967 15.521 21.1757 15.521 20.881V13.9H16.951V20.842C16.951 21.5873 16.7777 22.142 16.431 22.506C16.093 22.87 15.573 23.052 14.871 23.052ZM24.3304 23.13C23.6284 23.13 23.0911 22.9307 22.7184 22.532C22.3458 22.1333 22.1594 21.57 22.1594 20.842V16.058C22.1594 15.33 22.3458 14.7667 22.7184 14.368C23.0911 13.9693 23.6284 13.77 24.3304 13.77C25.0324 13.77 25.5698 13.9693 25.9424 14.368C26.3151 14.7667 26.5014 15.33 26.5014 16.058V20.842C26.5014 21.57 26.3151 22.1333 25.9424 22.532C25.5698 22.9307 25.0324 23.13 24.3304 23.13ZM24.3304 21.83C24.8244 21.83 25.0714 21.531 25.0714 20.933V15.967C25.0714 15.369 24.8244 15.07 24.3304 15.07C23.8364 15.07 23.5894 15.369 23.5894 15.967V20.933C23.5894 21.531 23.8364 21.83 24.3304 21.83ZM33.6175 23.13C32.9242 23.13 32.3998 22.935 32.0445 22.545C31.6892 22.1463 31.5115 21.5787 31.5115 20.842V20.322H32.8635V20.946C32.8635 21.5353 33.1105 21.83 33.6045 21.83C33.8472 21.83 34.0292 21.7607 34.1505 21.622C34.2805 21.4747 34.3455 21.2407 34.3455 20.92C34.3455 20.5387 34.2588 20.205 34.0855 19.919C33.9122 19.6243 33.5915 19.2733 33.1235 18.866C32.5342 18.346 32.1225 17.878 31.8885 17.462C31.6545 17.0373 31.5375 16.5607 31.5375 16.032C31.5375 15.3127 31.7195 14.758 32.0835 14.368C32.4475 13.9693 32.9762 13.77 33.6695 13.77C34.3542 13.77 34.8698 13.9693 35.2165 14.368C35.5718 14.758 35.7495 15.3213 35.7495 16.058V16.435H34.3975V15.967C34.3975 15.655 34.3368 15.4297 34.2155 15.291C34.0942 15.1437 33.9165 15.07 33.6825 15.07C33.2058 15.07 32.9675 15.3603 32.9675 15.941C32.9675 16.2703 33.0542 16.578 33.2275 16.864C33.4095 17.15 33.7345 17.4967 34.2025 17.904C34.8005 18.424 35.2122 18.8963 35.4375 19.321C35.6628 19.7457 35.7755 20.244 35.7755 20.816C35.7755 21.5613 35.5892 22.1333 35.2165 22.532C34.8525 22.9307 34.3195 23.13 33.6175 23.13ZM40.8854 13.9H42.3154V17.605H43.8494V13.9H45.2794V23H43.8494V18.905H42.3154V23H40.8854V13.9ZM52.7144 23.13C52.0211 23.13 51.4924 22.935 51.1284 22.545C50.7644 22.1463 50.5824 21.5787 50.5824 20.842V13.9H52.0124V20.946C52.0124 21.258 52.0731 21.4833 52.1944 21.622C52.3244 21.7607 52.5064 21.83 52.7404 21.83C52.9744 21.83 53.1521 21.7607 53.2734 21.622C53.4034 21.4833 53.4684 21.258 53.4684 20.946V13.9H54.8464V20.842C54.8464 21.5787 54.6644 22.1463 54.3004 22.545C53.9364 22.935 53.4077 23.13 52.7144 23.13ZM61.2345 13.9H63.1715L64.6535 23H63.2235L62.9635 21.193V21.219H61.3385L61.0785 23H59.7525L61.2345 13.9ZM62.7945 19.984L62.1575 15.486H62.1315L61.5075 19.984H62.7945ZM14.533 33.9H18.433V35.2H15.963V37.605H17.926V38.905H15.963V41.7H18.433V43H14.533V33.9ZM23.6091 41.622H24.9871V43H23.6091V41.622ZM14.533 53.9H16.574L17.484 60.413H17.51L18.42 53.9H20.461V63H19.109V56.11H19.083L18.043 63H16.847L15.807 56.11H15.781V63H14.533V53.9ZM26.9231 53.9H28.8601L30.3421 63H28.9121L28.6521 61.193V61.219H27.0271L26.7671 63H25.4411L26.9231 53.9ZM28.4831 59.984L27.8461 55.486H27.8201L27.1961 59.984H28.4831ZM35.3259 53.9H37.4449C38.1816 53.9 38.7189 54.0733 39.0569 54.42C39.3949 54.758 39.5639 55.2823 39.5639 55.993V56.552C39.5639 57.4967 39.2519 58.0947 38.6279 58.346V58.372C38.9746 58.476 39.2172 58.6883 39.3559 59.009C39.5032 59.3297 39.5769 59.7587 39.5769 60.296V61.895C39.5769 62.155 39.5856 62.3673 39.6029 62.532C39.6202 62.688 39.6636 62.844 39.7329 63H38.2769C38.2249 62.8527 38.1902 62.714 38.1729 62.584C38.1556 62.454 38.1469 62.22 38.1469 61.882V60.218C38.1469 59.802 38.0776 59.5117 37.9389 59.347C37.8089 59.1823 37.5792 59.1 37.2499 59.1H36.7559V63H35.3259V53.9ZM37.2759 57.8C37.5619 57.8 37.7742 57.7263 37.9129 57.579C38.0602 57.4317 38.1339 57.1847 38.1339 56.838V56.136C38.1339 55.8067 38.0732 55.5683 37.9519 55.421C37.8392 55.2737 37.6572 55.2 37.4059 55.2H36.7559V57.8H37.2759ZM45.9517 55.2H44.4567V53.9H48.8767V55.2H47.3817V63H45.9517V55.2ZM53.859 53.9H55.289V63H53.859V53.9ZM60.65 53.9H62.444L63.835 59.347H63.861V53.9H65.135V63H63.666L61.95 56.357H61.924V63H60.65V53.9ZM70.4878 53.9H74.3878V55.2H71.9178V57.605H73.8808V58.905H71.9178V61.7H74.3878V63H70.4878V53.9ZM79.2399 61.726L81.8919 55.2H79.3699V53.9H83.4259V55.174L80.7739 61.7H83.4259V63H79.2399V61.726Z" fill="white"/>
<line x1="0.5" y1="32" x2="0.499999" y2="2.18557e-08" stroke="white"/>
<line x1="33" y1="0.5" x2="1" y2="0.499997" stroke="white"/>
<line x1="97.5" y1="43" x2="97.5" y2="77" stroke="white"/>
<line x1="64" y1="76.5" x2="97" y2="76.5" stroke="white"/>
<line x1="104.5" y1="52" x2="104.5" y2="85" stroke="white"/>
<line x1="71" y1="84.5" x2="104" y2="84.5" stroke="white"/>
</svg>
