<svg width="75" height="75" viewBox="0 0 75 75" fill="none" xmlns="http://www.w3.org/2000/svg">
<path d="M32.3674 17.0555L20.3578 3.19282C18.9733 1.59533 16.435 1.60243 14.8269 3.21412L4.95086 13.1079C2.01148 16.0508 1.17013 20.4209 2.87057 23.9247C13.0293 44.9582 29.9926 61.9453 51.0119 72.1334C54.5121 73.8339 58.8786 72.9925 61.818 70.0496L71.7863 60.0635C73.4016 58.4483 73.4051 55.8958 71.7934 54.5113L57.8775 42.5657C56.422 41.3161 54.1607 41.4794 52.7016 42.9419L47.8595 47.7912C47.6116 48.051 47.2853 48.2223 46.9306 48.2787C46.576 48.3352 46.2126 48.2736 45.8963 48.1036C37.9815 43.5458 31.4159 36.9717 26.8684 29.0509C26.6981 28.734 26.6365 28.3701 26.6929 28.0148C26.7493 27.6596 26.9207 27.3327 27.1808 27.0842L32.0088 22.2527C33.4714 20.783 33.6312 18.511 32.3674 17.0519V17.0555Z" stroke="white" stroke-width="2.66667" stroke-linecap="round" stroke-linejoin="round"/>
</svg>
